<?xml version="1.0" encoding="utf-8"?>
<!-- Generator: Adobe Illustrator 27.5.0, SVG Export Plug-In . SVG Version: 6.00 Build 0)  -->
<svg version="1.1" xmlns="http://www.w3.org/2000/svg" xmlns:xlink="http://www.w3.org/1999/xlink" x="0px" y="0px"
	 viewBox="0 0 500 500" style="enable-background:new 0 0 500 500;" xml:space="preserve">
<g id="BACKGROUND">
	<rect style="fill:#768CB1;" width="500" height="500"/>
</g>
<g id="OBJECTS">
	<g>
		<g>
			<g>
				<path style="fill:#195FA0;" d="M460.336,224.778h-36.61c-2.829,0-5.132-2.302-5.132-5.132v-6.223h-1.211v6.223
					c0,3.498,2.846,6.343,6.343,6.343h36.61c3.732,0,6.768,3.036,6.768,6.768v58.818c0,3.003-2.443,5.445-5.445,5.445h-14.826v1.211
					h14.826c3.67,0,6.656-2.986,6.656-6.656v-58.818C468.315,228.357,464.736,224.778,460.336,224.778z"/>
			</g>
			<g>
				<path style="fill:#195FA0;" d="M427.4,121.384v11.7h1.211v-11.7c0-3.679-2.993-6.672-6.672-6.672h-28.104v1.211h28.104
					C424.95,115.923,427.4,118.373,427.4,121.384z"/>
			</g>
			<g>
				<path style="fill:#195FA0;" d="M78.985,118.962v11.13h1.211v-11.13c0-3.012,2.451-5.462,5.462-5.462h23.692v-1.211H85.658
					C81.978,112.289,78.985,115.283,78.985,118.962z"/>
			</g>
			<g>
				<rect x="294.676" y="114.712" style="fill:#195FA0;" width="32.074" height="1.211"/>
			</g>
			<g>
				<rect x="133.568" y="370.252" style="fill:#195FA0;" width="13.454" height="1.211"/>
			</g>
			<g>
				<rect x="122.231" y="328.894" style="fill:#195FA0;" width="1.211" height="18.6"/>
			</g>
			<g>
				<path style="fill:#195FA0;" d="M56.025,233.081v18.488h1.211v-18.488c0-1.31,1.066-2.376,2.376-2.376h17.919v-1.211H59.612
					C57.634,229.493,56.025,231.103,56.025,233.081z"/>
			</g>
			<g>
				<rect x="167.056" y="112.265" style="fill:#195FA0;" width="19.481" height="1.211"/>
			</g>
			<g>
				<rect x="279.287" y="370.51" style="fill:#195FA0;" width="12.83" height="1.211"/>
			</g>
			<g>
				<rect x="357.685" y="370.51" style="fill:#195FA0;" width="12.83" height="1.211"/>
			</g>
			<g>
				<path style="fill:#195FA0;" d="M141.966,179.703v53.038h1.211v-53.038c0-3.561-2.896-6.457-6.458-6.457h-7.472v1.211h7.472
					C139.612,174.457,141.966,176.81,141.966,179.703z"/>
			</g>
			<g>
				<path style="fill:#195FA0;" d="M450.679,302.371h-4.204v1.211h4.204c2.701,0,4.898,2.197,4.898,4.898v63.111
					c0,2.701-2.197,4.899-4.898,4.899h-11.342v1.211h11.342c3.369,0,6.109-2.741,6.109-6.11V308.48
					C456.788,305.111,454.048,302.371,450.679,302.371z"/>
			</g>
			<g>
				<rect x="79.5" y="297.02" style="fill:#195FA0;" width="14.97" height="1.211"/>
			</g>
			<g>
				<path style="fill:#195FA0;" d="M290.099,266.813l1.055,0.15c0.385-2.694,0.579-5.453,0.579-8.201v-0.235h-1.065v0.235
					C290.668,261.461,290.477,264.169,290.099,266.813z"/>
			</g>
			<g>
				<path style="fill:#195FA0;" d="M286.443,234.605c-1.147-2.48-2.482-4.901-3.972-7.195l-0.892,0.58
					c1.461,2.252,2.772,4.627,3.897,7.062L286.443,234.605z"/>
			</g>
			<g>
				<path style="fill:#195FA0;" d="M288.327,242.601c0.765,2.569,1.35,5.22,1.74,7.88l1.053-0.154
					c-0.396-2.71-0.993-5.412-1.771-8.029L288.327,242.601z"/>
			</g>
			<g>
				<path style="fill:#195FA0;" d="M203.346,211.222l-0.579-0.893c-2.294,1.486-4.503,3.15-6.564,4.948l0.699,0.803
					C198.926,214.315,201.094,212.68,203.346,211.222z"/>
			</g>
			<g>
				<path style="fill:#195FA0;" d="M186.38,228.271c1.448-2.259,3.072-4.437,4.828-6.47l-0.806-0.696
					c-1.789,2.072-3.443,4.29-4.918,6.592L186.38,228.271z"/>
			</g>
			<g>
				<path style="fill:#195FA0;" d="M217.966,204.49l-0.303-1.021c-2.622,0.777-5.211,1.752-7.696,2.897l0.445,0.967
					C212.851,206.208,215.392,205.251,217.966,204.49z"/>
			</g>
			<g>
				<path style="fill:#195FA0;" d="M286.54,282.711c1.138-2.49,2.104-5.084,2.874-7.71l-1.022-0.299
					c-0.755,2.577-1.704,5.122-2.821,7.565L286.54,282.711z"/>
			</g>
			<g>
				<path style="fill:#195FA0;" d="M179.715,242.935c0.75-2.578,1.693-5.126,2.806-7.572l-0.97-0.441
					c-1.133,2.492-2.096,5.088-2.859,7.716L179.715,242.935z"/>
			</g>
			<g>
				<path style="fill:#195FA0;" d="M234.128,315.361l0.002,1.064c2.748-0.004,5.507-0.201,8.2-0.588l-0.151-1.055
					C239.535,315.163,236.826,315.357,234.128,315.361z"/>
			</g>
			<g>
				<path style="fill:#195FA0;" d="M225.694,201.704l0.153,1.054c2.645-0.385,5.354-0.584,8.048-0.593l-0.003-1.064
					C231.147,201.109,228.389,201.312,225.694,201.704z"/>
			</g>
			<g>
				<path style="fill:#195FA0;" d="M250.064,313.068l0.301,1.021c2.624-0.771,5.215-1.74,7.703-2.88l-0.443-0.969
					C255.183,311.36,252.64,312.311,250.064,313.068z"/>
			</g>
			<g>
				<path style="fill:#195FA0;" d="M242.096,201.654l-0.146,1.055c2.662,0.371,5.317,0.937,7.893,1.682l0.296-1.023
					C247.514,202.608,244.808,202.032,242.096,201.654z"/>
			</g>
			<g>
				<path style="fill:#195FA0;" d="M257.857,206.22l-0.44,0.97c2.443,1.107,4.831,2.404,7.096,3.853l0.574-0.898
					C262.779,208.668,260.347,207.348,257.857,206.22z"/>
			</g>
			<g>
				<path style="fill:#195FA0;" d="M281.698,289.351c-1.452,2.255-3.08,4.429-4.841,6.461l0.805,0.697
					c1.794-2.07,3.452-4.285,4.931-6.582L281.698,289.351z"/>
			</g>
			<g>
				<path style="fill:#195FA0;" d="M271.684,215.055l-0.695,0.807c2.032,1.75,3.959,3.664,5.728,5.688l0.803-0.7
					C275.717,218.788,273.753,216.838,271.684,215.055z"/>
			</g>
			<g>
				<path style="fill:#195FA0;" d="M264.698,306.365l0.576,0.895c2.297-1.48,4.509-3.141,6.575-4.934l-0.697-0.805
					C269.123,303.282,266.952,304.912,264.698,306.365z"/>
			</g>
			<g>
				<path style="fill:#195FA0;" d="M181.648,282.813c1.139,2.479,2.47,4.902,3.956,7.203l0.895-0.578
					c-1.459-2.258-2.766-4.637-3.883-7.07L181.648,282.813z"/>
			</g>
			<g>
				<path style="fill:#195FA0;" d="M177.004,267.08c0.392,2.71,0.982,5.413,1.755,8.033l1.021-0.301
					c-0.759-2.572-1.339-5.225-1.723-7.885L177.004,267.08z"/>
			</g>
			<g>
				<path style="fill:#195FA0;" d="M217.89,314.122c2.62,0.766,5.324,1.349,8.038,1.733l0.149-1.055
					c-2.664-0.377-5.318-0.948-7.889-1.699L217.89,314.122z"/>
			</g>
			<g>
				<path style="fill:#195FA0;" d="M177.473,258.763c0-2.655,0.186-5.325,0.552-7.936l-1.055-0.148
					c-0.373,2.659-0.562,5.38-0.562,8.084v0.117h1.064V258.763z"/>
			</g>
			<g>
				<path style="fill:#195FA0;" d="M191.349,295.888l-0.804,0.699c1.795,2.064,3.754,4.018,5.823,5.806l0.696-0.805
					C195.033,299.832,193.11,297.914,191.349,295.888z"/>
			</g>
			<g>
				<path style="fill:#195FA0;" d="M202.954,307.318c2.304,1.479,4.734,2.805,7.222,3.939l0.441-0.969
					c-2.442-1.113-4.827-2.414-7.088-3.866L202.954,307.318z"/>
			</g>
			<g>
				<path style="fill:#195FA0;" d="M151.383,258.763c0,18.393,5.91,35.803,17.09,50.348l1.211-0.93
					c-10.974-14.277-16.774-31.365-16.774-49.418H151.383z"/>
			</g>
			<g>
				<path style="fill:#195FA0;" d="M364.947,216.875H305.41c-5.165-8.776-11.99-16.637-20.276-23.152l-0.943,1.2
					c19.726,15.508,31.039,38.777,31.039,63.839h1.527c0-14.398-3.666-28.214-10.466-40.36h58.656c2.347,0,4.255,1.908,4.255,4.254
					v17.073h1.527v-17.073C370.729,219.469,368.136,216.875,364.947,216.875z"/>
			</g>
		</g>
		<g>
			<path style="fill:#195FA0;" d="M387.538,114.345c0-5.473-4.437-9.91-9.909-9.91c-3.338,0-6.285,1.656-8.08,4.186
				c-1.363-6.906-7.448-12.116-14.754-12.116c-8.308,0-15.044,6.735-15.044,15.044c0,6.407,4.012,11.864,9.656,14.033
				c-0.285,1.272-0.448,2.589-0.448,3.947c0,9.93,8.05,17.98,17.98,17.98c9.93,0,17.98-8.05,17.98-17.98
				c0-2.546-0.536-4.965-1.491-7.16C385.914,120.569,387.538,117.65,387.538,114.345z"/>
		</g>
		<g>
			<path style="fill:#195FA0;" d="M147.756,88.813h-19.991c0,6.058-4.911,10.969-10.969,10.969v3.701
				c0,31.437,20.965,36.779,20.965,36.779l0,0c0,0,20.965-4.295,20.965-37.618v-2.863C152.667,99.782,147.756,94.871,147.756,88.813
				z"/>
		</g>
		<g>
			<g>
				<g>
					<rect x="383.316" y="145.251" style="fill:#195FA0;" width="84.33" height="60.236"/>
				</g>
				<g>
					<rect x="380.915" y="141.714" style="fill:#FFFFFF;" width="82.975" height="60.236"/>
				</g>
				<g>
					<g>
						<rect x="400.609" y="153.336" style="fill:#B4D7DC;" width="9.708" height="34.428"/>
					</g>
				</g>
				<polyline style="fill:none;stroke:#3C5A73;stroke-width:0.9709;stroke-miterlimit:10;" points="450.334,193.354 
					390.138,193.354 390.138,150.309 				"/>
				<g>
					<path style="fill:#3C5A73;" d="M449.226,195.019v-3.33c0-0.225,0.243-0.367,0.439-0.255l2.912,1.665
						c0.197,0.113,0.197,0.397,0,0.509l-2.912,1.665C449.469,195.385,449.226,195.244,449.226,195.019z"/>
				</g>
				<g>
					<rect x="400.609" y="158.065" style="fill:#5AB4FF;" width="9.708" height="29.699"/>
				</g>
				<g>
					<g>
						<rect x="415.566" y="153.336" style="fill:#B4D7DC;" width="9.708" height="34.428"/>
					</g>
					<g>
						<rect x="415.566" y="178.057" style="fill:#FFD23C;" width="9.708" height="9.708"/>
					</g>
				</g>
				<g>
					<g>
						<rect x="430.523" y="153.336" style="fill:#B4D7DC;" width="9.708" height="34.428"/>
					</g>
					<g>
						<rect x="430.523" y="171.832" style="fill:#FF4619;" width="9.708" height="15.532"/>
					</g>
				</g>
				<g>
					<g>
						<rect x="445.48" y="153.336" style="fill:#B4D7DC;" width="9.708" height="34.428"/>
					</g>
					<g>
						<rect x="445.48" y="165.521" style="fill:#55C7A6;" width="9.708" height="22.244"/>
					</g>
				</g>
			</g>
			<g>
				<path style="fill:#3C5A73;" d="M391.803,152.208h-3.33c-0.225,0-0.366-0.243-0.255-0.439l1.665-2.912
					c0.113-0.197,0.397-0.197,0.509,0l1.665,2.912C392.17,151.964,392.029,152.208,391.803,152.208z"/>
			</g>
		</g>
		<g>
			<g>
				<path style="fill:#195FA0;" d="M426.735,245.074h-96.471c-2.564,0-4.643,2.079-4.643,4.643v63.405v3.523
					c0,0.32,0.033,0.633,0.094,0.936c0.124,0.605,0.365,1.166,0.699,1.66c0.334,0.494,0.76,0.92,1.254,1.254
					c0.741,0.501,1.635,0.793,2.596,0.793l0,0h37.021l-3.529,13.065h-5.534c-1.203,0-2.178,0.975-2.178,2.178
					c0,1.203,0.975,2.178,2.178,2.178h40.557c1.203,0,2.178-0.975,2.178-2.178c0-1.203-0.975-2.178-2.178-2.178h-5.262
					l-3.754-13.065h36.974c0.962,0,1.855-0.292,2.596-0.793c0.494-0.334,0.92-0.76,1.254-1.254c0.501-0.741,0.793-1.634,0.793-2.596
					v-3.523v-63.405C431.379,247.153,429.3,245.074,426.735,245.074z"/>
			</g>
			<g>
				<g>
					<path style="fill:#3C5064;" d="M424.039,318.592h-96.471c-2.564,0-4.643-2.079-4.643-4.643v-66.927
						c0-2.564,2.079-4.643,4.643-4.643h96.471c2.564,0,4.643,2.079,4.643,4.643v66.927
						C428.682,316.513,426.603,318.592,424.039,318.592z"/>
				</g>
				<g>
					<path style="fill:#FFFFFF;" d="M421.084,305.526h-90.562c-1.224,0-2.217-0.992-2.217-2.217v-54.293
						c0-1.224,0.992-2.217,2.217-2.217h90.562c1.224,0,2.217,0.992,2.217,2.217v54.293
						C423.301,304.534,422.308,305.526,421.084,305.526z"/>
				</g>
				<g>
					<polygon style="fill:#C8E6EB;" points="390.819,331.657 361.059,331.657 365.324,315.87 386.283,315.87 					"/>
				</g>
				<g>
					<path style="fill:#FFFFFF;" d="M396.081,336.012h-40.557c-1.203,0-2.178-0.975-2.178-2.177l0,0
						c0-1.203,0.975-2.177,2.178-2.177h40.557c1.203,0,2.178,0.975,2.178,2.177l0,0
						C398.259,335.037,397.284,336.012,396.081,336.012z"/>
				</g>
				<g>
					<path style="fill:#FFFFFF;" d="M322.924,310.426v3.522c0,2.564,2.079,4.643,4.643,4.643h96.471
						c2.564,0,4.643-2.079,4.643-4.643v-3.522H322.924z"/>
				</g>
				<path style="fill:#46738C;" d="M378.313,314.509c0,1.311-1.063,2.374-2.374,2.374c-1.311,0-2.374-1.063-2.374-2.374
					c0-1.311,1.063-2.374,2.374-2.374C377.25,312.135,378.313,313.198,378.313,314.509z"/>
			</g>
		</g>
		<g>
			<g>
				<rect x="43.733" y="138.924" style="fill:#195FA0;" width="78.217" height="67.088"/>
			</g>
			<g>
				<rect x="39.92" y="135.18" style="fill:#FFFFFF;" width="78.217" height="67.088"/>
			</g>
			<g>
				<g>
					<path style="fill:#5AB4FF;" d="M55.634,152.101v-5.293c0-1.27,1.03-2.3,2.3-2.3h5.329c1.27,0,2.3,1.03,2.3,2.3v5.293
						c0,1.27-1.03,2.3-2.3,2.3h-5.329C56.664,154.401,55.634,153.372,55.634,152.101z"/>
				</g>
				<g>
					<path style="fill:#B4D7DC;" d="M69.61,149.834v-0.759c0-1.27,1.03-2.3,2.3-2.3h28.214c1.27,0,2.3,1.03,2.3,2.3v0.759
						c0,1.27-1.03,2.3-2.3,2.3H71.909C70.639,152.134,69.61,151.104,69.61,149.834z"/>
				</g>
				<g>
					<path style="fill:#B4D7DC;" d="M69.61,162.68v-0.759c0-1.27,1.03-2.3,2.3-2.3h28.214c1.27,0,2.3,1.03,2.3,2.3v0.759
						c0,1.27-1.03,2.3-2.3,2.3H71.909C70.639,164.98,69.61,163.95,69.61,162.68z"/>
				</g>
				<g>
					<path style="fill:#B4D7DC;" d="M69.61,175.526v-0.759c0-1.27,1.03-2.3,2.3-2.3h28.214c1.27,0,2.3,1.03,2.3,2.3v0.759
						c0,1.27-1.03,2.3-2.3,2.3H71.909C70.639,177.826,69.61,176.796,69.61,175.526z"/>
				</g>
				<g>
					<path style="fill:#B4D7DC;" d="M69.61,188.372v-0.758c0-1.27,1.03-2.3,2.3-2.3h28.214c1.27,0,2.3,1.03,2.3,2.3v0.758
						c0,1.27-1.03,2.3-2.3,2.3H71.909C70.639,190.672,69.61,189.643,69.61,188.372z"/>
				</g>
				<g>
					<path style="fill:#FFD23C;" d="M55.634,164.947v-5.293c0-1.27,1.03-2.3,2.3-2.3h5.329c1.27,0,2.3,1.03,2.3,2.3v5.293
						c0,1.27-1.03,2.3-2.3,2.3h-5.329C56.664,167.247,55.634,166.218,55.634,164.947z"/>
				</g>
				<g>
					<path style="fill:#FF4619;" d="M55.634,177.793v-5.293c0-1.27,1.03-2.3,2.3-2.3h5.329c1.27,0,2.3,1.03,2.3,2.3v5.293
						c0,1.27-1.03,2.3-2.3,2.3h-5.329C56.664,180.093,55.634,179.064,55.634,177.793z"/>
				</g>
				<g>
					<path style="fill:#55C7A6;" d="M55.634,190.639v-5.293c0-1.27,1.03-2.3,2.3-2.3h5.329c1.27,0,2.3,1.03,2.3,2.3v5.293
						c0,1.27-1.03,2.3-2.3,2.3h-5.329C56.664,192.939,55.634,191.91,55.634,190.639z"/>
				</g>
			</g>
		</g>
		<g>
			<g>
				
					<ellipse transform="matrix(0.9221 -0.3869 0.3869 0.9221 -20.6107 150.667)" style="fill:#FFC305;" cx="363.938" cy="126.529" rx="17.98" ry="17.98"/>
				
					<ellipse transform="matrix(0.7071 -0.7071 0.7071 0.7071 17.1256 294.402)" style="fill:#FFE678;" cx="363.937" cy="126.529" rx="15.044" ry="15.044"/>
				<g>
					<path style="fill:#FFA50A;" d="M363.072,136.982v-2.571c-1.476-0.026-3.004-0.484-3.896-1.121l0.612-1.706
						c0.917,0.612,2.242,1.095,3.668,1.095c1.808,0,3.029-1.044,3.029-2.495c0-1.401-0.993-2.266-2.878-3.03
						c-2.596-1.018-4.201-2.189-4.201-4.405c0-2.114,1.501-3.718,3.844-4.1v-2.571h1.58v2.47c1.528,0.051,2.571,0.458,3.309,0.892
						l-0.637,1.681c-0.535-0.306-1.578-0.866-3.208-0.866c-1.962,0-2.7,1.172-2.7,2.19c0,1.324,0.941,1.986,3.158,2.903
						c2.623,1.07,3.946,2.394,3.946,4.66c0,2.012-1.4,3.896-4.022,4.329v2.648H363.072z"/>
				</g>
			</g>
			<g>
				
					<ellipse transform="matrix(0.2312 -0.9729 0.9729 0.2312 164.838 425.7073)" style="fill:#FF7350;" cx="351.794" cy="108.549" rx="15.044" ry="15.044"/>
				
					<ellipse transform="matrix(0.231 -0.973 0.973 0.231 164.9176 425.7542)" style="fill:#FF9669;" cx="351.794" cy="108.549" rx="12.587" ry="12.587"/>
				<g>
					<path style="fill:#FF4619;" d="M351.07,117.295v-2.151c-1.235-0.022-2.514-0.405-3.26-0.938l0.512-1.428
						c0.767,0.512,1.875,0.916,3.069,0.916c1.513,0,2.535-0.873,2.535-2.088c0-1.172-0.831-1.896-2.408-2.536
						c-2.172-0.852-3.515-1.832-3.515-3.686c0-1.769,1.256-3.111,3.217-3.431v-2.151h1.322v2.066
						c1.279,0.042,2.151,0.383,2.769,0.746l-0.533,1.406c-0.448-0.256-1.32-0.724-2.684-0.724c-1.641,0-2.259,0.98-2.259,1.832
						c0,1.108,0.788,1.662,2.642,2.429c2.195,0.895,3.301,2.003,3.301,3.899c0,1.684-1.171,3.26-3.366,3.622v2.215H351.07z"/>
				</g>
			</g>
			<g>
				
					<ellipse transform="matrix(0.9229 -0.385 0.385 0.9229 -13.9898 152.8173)" style="fill:#A5C8CD;" cx="374.628" cy="111.345" rx="9.91" ry="9.91"/>
				
					<ellipse transform="matrix(0.9231 -0.3846 0.3846 0.9231 -14.0069 152.6569)" style="fill:#C8E6EB;" cx="374.628" cy="111.345" rx="8.291" ry="8.291"/>
				<g>
					<path style="fill:#87AFB9;" d="M374.151,117.106v-1.417c-0.814-0.014-1.656-0.267-2.147-0.618l0.337-0.94
						c0.505,0.337,1.235,0.603,2.022,0.603c0.997,0,1.67-0.575,1.67-1.375c0-0.772-0.547-1.249-1.586-1.67
						c-1.431-0.561-2.315-1.207-2.315-2.428c0-1.165,0.827-2.049,2.119-2.26v-1.417h0.871v1.361
						c0.842,0.028,1.417,0.253,1.824,0.491l-0.351,0.926c-0.295-0.168-0.87-0.477-1.768-0.477c-1.081,0-1.488,0.646-1.488,1.207
						c0,0.73,0.519,1.095,1.741,1.6c1.446,0.59,2.175,1.319,2.175,2.568c0,1.109-0.771,2.147-2.217,2.386v1.459H374.151z"/>
				</g>
			</g>
		</g>
		<g>
			<g>
				<g>
					<path style="fill:#195FA0;" d="M313.196,380.898c1.045,0,1.893-0.847,1.893-1.893v-1.685c0-0.829,0.546-1.545,1.334-1.804
						c0.605-0.198,1.189-0.443,1.749-0.728c0.742-0.378,1.638-0.261,2.227,0.329l1.194,1.194c0.739,0.739,1.938,0.739,2.677,0
						l0.881-0.881c0.739-0.739,0.739-1.938,0-2.677l-1.194-1.194c-0.589-0.589-0.707-1.485-0.328-2.227
						c0.285-0.56,0.529-1.144,0.728-1.749c0.259-0.788,0.974-1.334,1.804-1.334h1.685c1.045,0,1.893-0.848,1.893-1.893v-1.246
						c0-1.045-0.848-1.893-1.893-1.893h-1.685c-0.83,0-1.545-0.546-1.804-1.334c-0.198-0.605-0.443-1.189-0.728-1.749
						c-0.378-0.742-0.261-1.638,0.328-2.227l1.194-1.194c0.739-0.739,0.739-1.938,0-2.677l-0.881-0.881
						c-0.739-0.739-1.938-0.739-2.677,0l-1.194,1.194c-0.589,0.589-1.485,0.707-2.227,0.328c-0.56-0.285-1.144-0.529-1.749-0.728
						c-0.788-0.259-1.334-0.974-1.334-1.804v-1.685c0-1.045-0.848-1.893-1.893-1.893h-1.246c-1.045,0-1.893,0.848-1.893,1.893v1.685
						c0,0.829-0.546,1.545-1.334,1.804c-0.605,0.198-1.189,0.443-1.749,0.728c-0.742,0.378-1.638,0.261-2.227-0.328l-1.194-1.194
						c-0.739-0.739-1.938-0.739-2.677,0l-0.881,0.881c-0.739,0.739-0.739,1.938,0,2.677l1.194,1.194
						c0.589,0.589,0.707,1.485,0.329,2.227c-0.285,0.56-0.529,1.144-0.728,1.749c-0.259,0.788-0.974,1.334-1.804,1.334h-1.685
						c-1.045,0-1.893,0.848-1.893,1.893v1.246c0,1.045,0.848,1.893,1.893,1.893h1.685c0.829,0,1.545,0.546,1.804,1.334
						c0.198,0.605,0.443,1.189,0.728,1.749c0.378,0.742,0.261,1.638-0.329,2.227l-1.194,1.194c-0.739,0.739-0.739,1.938,0,2.677
						l0.881,0.881c0.739,0.739,1.938,0.739,2.677,0l1.194-1.194c0.589-0.589,1.485-0.707,2.227-0.329
						c0.56,0.285,1.144,0.529,1.749,0.728c0.788,0.259,1.334,0.974,1.334,1.804v1.685c0,1.045,0.848,1.893,1.893,1.893H313.196z
						 M308.148,363.732c0-2.444,1.981-4.426,4.426-4.426c2.444,0,4.426,1.981,4.426,4.426c0,2.444-1.981,4.426-4.426,4.426
						C310.129,368.158,308.148,366.176,308.148,363.732z"/>
				</g>
				<g>
					<path style="fill:#195FA0;" d="M339.702,391.275l-1.3-0.346c-0.033-0.736-0.137-1.459-0.297-2.166l1.17-0.678
						c1.009-0.585,1.353-1.877,0.768-2.886l-1.608-2.773c-0.585-1.009-1.877-1.353-2.886-0.768l-1.17,0.678
						c-0.535-0.49-1.11-0.94-1.733-1.333l0.346-1.3c0.3-1.127-0.371-2.284-1.498-2.584l-3.098-0.824
						c-1.127-0.3-2.284,0.371-2.584,1.498l-0.346,1.3c-0.735,0.032-1.459,0.137-2.166,0.296l-0.678-1.17
						c-0.585-1.009-1.877-1.353-2.886-0.768l-2.773,1.608c-1.009,0.585-1.353,1.877-0.768,2.886l0.678,1.17
						c-0.49,0.534-0.94,1.11-1.333,1.732l-1.3-0.346c-1.127-0.3-2.284,0.371-2.584,1.498l-0.824,3.098
						c-0.3,1.127,0.371,2.284,1.498,2.584l1.3,0.346c0.033,0.735,0.137,1.459,0.296,2.166l-1.17,0.678
						c-1.009,0.585-1.353,1.877-0.768,2.886l1.608,2.773c0.585,1.009,1.877,1.353,2.886,0.768l1.17-0.678
						c0.534,0.49,1.11,0.94,1.732,1.333l-0.346,1.3c-0.3,1.127,0.371,2.284,1.498,2.584l3.098,0.824
						c1.127,0.3,2.284-0.371,2.584-1.498l0.346-1.3c0.735-0.033,1.459-0.137,2.166-0.296l0.678,1.17
						c0.585,1.009,1.877,1.353,2.886,0.768l2.773-1.608c1.009-0.585,1.353-1.877,0.767-2.886l-0.678-1.17
						c0.49-0.535,0.94-1.11,1.333-1.732l1.3,0.345c1.127,0.3,2.284-0.371,2.584-1.498l0.824-3.098
						C341.5,392.731,340.829,391.575,339.702,391.275z M332.318,394.576c-1.216,2.534-3.94,4.114-6.744,3.91
						c-5.017-0.365-8.034-5.568-5.859-10.104c1.216-2.534,3.94-4.114,6.744-3.91C331.477,384.837,334.494,390.04,332.318,394.576z"
						/>
				</g>
				<g>
					<path style="fill:#195FA0;" d="M350.696,369.536c0.819-0.205,1.317-1.036,1.112-1.855l-0.094-0.377
						c-0.205-0.819-1.036-1.317-1.855-1.112l-2.068,0.518c-0.361-0.691-0.823-1.307-1.364-1.838l1.097-1.83
						c0.434-0.724,0.199-1.664-0.525-2.098l-0.333-0.2c-0.724-0.434-1.664-0.199-2.098,0.525l-1.097,1.83
						c-0.723-0.227-1.485-0.344-2.264-0.337l-0.518-2.068c-0.205-0.819-1.036-1.317-1.855-1.112l-0.377,0.094
						c-0.819,0.205-1.317,1.036-1.112,1.855l0.518,2.068c-0.691,0.361-1.307,0.823-1.838,1.364l-1.83-1.097
						c-0.724-0.434-1.664-0.199-2.098,0.525l-0.2,0.333c-0.434,0.724-0.199,1.664,0.525,2.098l1.83,1.097
						c-0.227,0.723-0.344,1.485-0.337,2.264l-2.068,0.518c-0.819,0.205-1.317,1.036-1.112,1.855l0.094,0.377
						c0.205,0.819,1.036,1.317,1.855,1.112l2.068-0.518c0.361,0.691,0.823,1.307,1.364,1.838l-1.097,1.83
						c-0.434,0.724-0.199,1.664,0.525,2.098l0.333,0.2c0.724,0.434,1.664,0.199,2.098-0.525l1.097-1.83
						c0.723,0.227,1.485,0.344,2.264,0.337l0.518,2.068c0.205,0.819,1.036,1.317,1.855,1.112l0.377-0.094
						c0.819-0.205,1.317-1.036,1.112-1.855l-0.518-2.068c0.691-0.361,1.307-0.823,1.838-1.364l1.83,1.097
						c0.724,0.434,1.664,0.199,2.098-0.525l0.2-0.333c0.434-0.724,0.199-1.664-0.525-2.098l-1.83-1.097
						c0.227-0.723,0.345-1.485,0.337-2.264L350.696,369.536z M341.259,372.329c-0.794,0.007-1.562-0.453-1.93-1.157
						c-0.783-1.497,0.266-3.247,1.955-3.262c0.794-0.007,1.562,0.453,1.93,1.157C343.998,370.565,342.949,372.314,341.259,372.329z"
						/>
				</g>
			</g>
			<g>
				<path style="fill:#AAC85A;" d="M327.739,361.355v-1.246c0-1.045-0.848-1.893-1.893-1.893h-1.685
					c-0.83,0-1.545-0.546-1.804-1.334c-0.199-0.605-0.443-1.189-0.728-1.749c-0.378-0.742-0.261-1.638,0.328-2.227l1.194-1.194
					c0.739-0.739,0.739-1.938,0-2.677l-0.881-0.881c-0.739-0.739-1.938-0.739-2.677,0l-1.194,1.194
					c-0.589,0.589-1.485,0.707-2.227,0.329c-0.56-0.285-1.144-0.529-1.749-0.728c-0.788-0.259-1.334-0.974-1.334-1.804v-1.685
					c0-1.046-0.848-1.893-1.893-1.893h-1.246c-1.045,0-1.893,0.848-1.893,1.893v1.685c0,0.829-0.546,1.545-1.334,1.804
					c-0.605,0.198-1.189,0.443-1.749,0.728c-0.742,0.378-1.638,0.261-2.227-0.329l-1.194-1.194c-0.739-0.739-1.938-0.739-2.677,0
					l-0.881,0.881c-0.739,0.739-0.739,1.938,0,2.677l1.194,1.194c0.589,0.589,0.707,1.485,0.328,2.227
					c-0.285,0.56-0.529,1.144-0.728,1.749c-0.259,0.788-0.974,1.334-1.804,1.334h-1.685c-1.045,0-1.893,0.848-1.893,1.893v1.246
					c0,1.045,0.848,1.893,1.893,1.893h1.685c0.83,0,1.545,0.546,1.804,1.334c0.199,0.605,0.443,1.189,0.728,1.749
					c0.378,0.742,0.261,1.638-0.328,2.227l-1.194,1.194c-0.739,0.739-0.739,1.938,0,2.677l0.881,0.881
					c0.739,0.739,1.938,0.739,2.677,0l1.194-1.194c0.589-0.589,1.485-0.707,2.227-0.329c0.56,0.285,1.144,0.529,1.749,0.728
					c0.788,0.259,1.334,0.974,1.334,1.804v1.685c0,1.046,0.847,1.893,1.893,1.893h1.246c1.045,0,1.893-0.848,1.893-1.893v-1.685
					c0-0.829,0.546-1.545,1.334-1.804c0.605-0.198,1.189-0.443,1.749-0.728c0.742-0.378,1.638-0.261,2.227,0.329l1.194,1.194
					c0.739,0.739,1.938,0.739,2.677,0l0.881-0.881c0.739-0.739,0.739-1.938,0-2.677l-1.194-1.194
					c-0.589-0.589-0.707-1.485-0.328-2.227c0.285-0.56,0.529-1.144,0.728-1.749c0.259-0.788,0.974-1.334,1.804-1.334h1.685
					C326.891,363.248,327.739,362.4,327.739,361.355z M310.573,365.158c-2.444,0-4.426-1.981-4.426-4.426
					c0-2.444,1.981-4.426,4.426-4.426c2.444,0,4.425,1.981,4.425,4.426C314.999,363.176,313.017,365.158,310.573,365.158z"/>
				<path style="fill:#73C8F0;" d="M338.376,393.956l0.824-3.098c0.3-1.127-0.371-2.284-1.498-2.584l-1.3-0.346
					c-0.033-0.735-0.137-1.459-0.297-2.166l1.17-0.679c1.009-0.585,1.353-1.877,0.768-2.886l-1.608-2.773
					c-0.585-1.009-1.877-1.353-2.886-0.768l-1.17,0.678c-0.534-0.49-1.11-0.94-1.732-1.333l0.346-1.3
					c0.3-1.127-0.371-2.284-1.498-2.584l-3.098-0.824c-1.127-0.3-2.284,0.371-2.584,1.498l-0.346,1.3
					c-0.735,0.032-1.458,0.137-2.166,0.296l-0.678-1.17c-0.585-1.009-1.877-1.353-2.886-0.768l-2.773,1.608
					c-1.009,0.585-1.353,1.877-0.768,2.886l0.678,1.17c-0.49,0.535-0.94,1.11-1.333,1.732l-1.3-0.346
					c-1.127-0.3-2.284,0.371-2.584,1.498l-0.824,3.098c-0.3,1.127,0.371,2.284,1.498,2.584l1.3,0.346
					c0.033,0.735,0.137,1.459,0.296,2.166l-1.17,0.678c-1.009,0.585-1.353,1.877-0.768,2.886l1.608,2.773
					c0.585,1.009,1.877,1.353,2.886,0.768l1.17-0.678c0.534,0.49,1.11,0.94,1.732,1.333l-0.346,1.3
					c-0.3,1.127,0.371,2.284,1.498,2.584l3.098,0.824c1.127,0.3,2.284-0.371,2.584-1.498l0.346-1.3
					c0.735-0.033,1.459-0.137,2.166-0.296l0.678,1.17c0.585,1.009,1.877,1.353,2.886,0.768l2.773-1.608
					c1.009-0.585,1.353-1.877,0.768-2.886l-0.678-1.17c0.49-0.534,0.94-1.11,1.333-1.732l1.3,0.346
					C336.92,395.754,338.076,395.083,338.376,393.956z M330.318,391.576c-1.216,2.534-3.94,4.114-6.744,3.91
					c-5.017-0.365-8.034-5.568-5.859-10.104c1.216-2.534,3.94-4.114,6.744-3.91C329.477,381.837,332.494,387.04,330.318,391.576z"/>
				<path style="fill:#FA870A;" d="M349.808,364.681l-0.094-0.377c-0.205-0.819-1.036-1.317-1.855-1.112l-2.068,0.518
					c-0.361-0.691-0.823-1.307-1.364-1.838l1.097-1.83c0.434-0.724,0.199-1.664-0.525-2.098l-0.333-0.2
					c-0.724-0.434-1.664-0.199-2.098,0.525l-1.097,1.83c-0.723-0.227-1.485-0.344-2.264-0.337l-0.518-2.068
					c-0.205-0.819-1.036-1.317-1.855-1.112l-0.377,0.094c-0.819,0.205-1.317,1.036-1.112,1.855l0.518,2.068
					c-0.691,0.361-1.307,0.823-1.838,1.364l-1.83-1.097c-0.724-0.434-1.664-0.199-2.098,0.525l-0.2,0.333
					c-0.434,0.724-0.199,1.664,0.525,2.098l1.83,1.097c-0.227,0.723-0.344,1.485-0.337,2.264l-2.068,0.518
					c-0.819,0.205-1.317,1.036-1.112,1.855l0.094,0.377c0.205,0.819,1.036,1.317,1.855,1.112l2.068-0.518
					c0.361,0.691,0.823,1.307,1.364,1.838l-1.097,1.83c-0.434,0.724-0.199,1.664,0.525,2.098l0.333,0.2
					c0.724,0.434,1.664,0.199,2.098-0.525l1.097-1.83c0.723,0.227,1.485,0.344,2.264,0.337l0.518,2.068
					c0.205,0.819,1.036,1.317,1.855,1.112l0.377-0.094c0.819-0.205,1.317-1.036,1.112-1.855l-0.518-2.068
					c0.691-0.361,1.307-0.823,1.838-1.364l1.83,1.097c0.724,0.434,1.664,0.199,2.098-0.525l0.2-0.333
					c0.434-0.724,0.199-1.664-0.525-2.098l-1.83-1.097c0.227-0.723,0.344-1.485,0.337-2.264l2.068-0.518
					C349.515,366.331,350.013,365.5,349.808,364.681z M341.214,366.067c0.783,1.497-0.266,3.247-1.955,3.262
					c-0.794,0.007-1.562-0.453-1.93-1.157c-0.783-1.497,0.266-3.247,1.955-3.262C340.078,364.903,340.846,365.363,341.214,366.067z"
					/>
			</g>
		</g>
		<g>
			<g>
				<path style="fill:#FFD23C;" d="M135.452,137.212c0,0-20.965-5.343-20.965-36.779v-3.701l0,0c6.058,0,10.969-4.911,10.969-10.969
					h19.991c0,6.058,4.911,10.969,10.969,10.969l0,0v2.863C156.416,132.917,135.452,137.212,135.452,137.212L135.452,137.212
					L135.452,137.212z"/>
			</g>
			<g>
				<path style="fill:#FF4619;" d="M135.452,131.113c0,0-15.995-4.076-15.995-28.06v-2.824l0,0c4.622,0,8.369-3.747,8.369-8.369
					h15.252c0,4.622,3.747,8.369,8.369,8.369l0,0v2.184C151.446,127.837,135.452,131.113,135.452,131.113L135.452,131.113
					L135.452,131.113z"/>
			</g>
		</g>
		<g>
			<g>
				<path style="fill:#195FA0;" d="M70.096,257.371h-23.54c-2.252,0-4.079,1.826-4.079,4.079v50.354
					c0,2.253,1.826,4.079,4.079,4.079h23.54c2.253,0,4.079-1.826,4.079-4.079v-50.354C74.175,259.197,72.349,257.371,70.096,257.371
					z"/>
			</g>
			<g>
				<g>
					<path style="fill:#3C5064;" d="M39.478,309.803v-50.354c0-2.253,1.826-4.079,4.079-4.079h23.54
						c2.253,0,4.079,1.826,4.079,4.079v50.354c0,2.253-1.826,4.079-4.079,4.079h-23.54
						C41.304,313.882,39.478,312.056,39.478,309.803z"/>
				</g>
				<g>
					<path style="fill:#FFFFFF;" d="M41.42,308.901v-48.549c0-1.642,1.331-2.973,2.973-2.973H66.26c1.642,0,2.973,1.331,2.973,2.973
						v48.549c0,1.642-1.331,2.973-2.973,2.973H44.393C42.751,311.874,41.42,310.543,41.42,308.901z"/>
				</g>
				<g>
					<path style="fill:#3C5064;" d="M46.701,255.862v1.708c0,1.213,0.983,2.197,2.196,2.197h12.857c1.213,0,2.196-0.983,2.196-2.197
						v-1.708H46.701z"/>
				</g>
				<g>
					<path style="fill:#B4D7DC;" d="M62.335,287.099H48.318c-0.733,0-1.328-0.594-1.328-1.327v-9.36
						c0-0.733,0.594-1.328,1.328-1.328h14.017c0.733,0,1.328,0.594,1.328,1.328v9.36C63.662,286.504,63.068,287.099,62.335,287.099z
						"/>
				</g>
				<g>
					<path style="fill:#FF4619;" d="M58.563,296.641h-6.473c-0.733,0-1.328-0.594-1.328-1.328v-0.634
						c0-0.733,0.594-1.328,1.328-1.328h6.473c0.733,0,1.328,0.594,1.328,1.328v0.634C59.89,296.047,59.296,296.641,58.563,296.641z"
						/>
				</g>
				<g>
					<path style="fill:#87AFB9;" d="M55.326,282.543l-8.336-6.354l0,0c0-0.61,0.495-1.105,1.105-1.105h14.462
						c0.61,0,1.105,0.495,1.105,1.105l0,0L55.326,282.543z"/>
				</g>
			</g>
		</g>
		<g>
			<g>
				<rect x="195.75" y="100.274" style="fill:#195FA0;" width="94.041" height="83.977"/>
			</g>
			<g>
				<rect x="191.745" y="96.048" style="fill:#FFFFFF;" width="94.041" height="83.977"/>
			</g>
			<g>
				<g>
					<path style="fill:#A5C8CD;" d="M274.649,170.171h-63.757v-54.308c0-3.042,2.466-5.507,5.507-5.507h52.742
						c3.042,0,5.507,2.466,5.507,5.507V170.171z"/>
				</g>
				<g>
					<path style="fill:#B4D7DC;" d="M272.508,167.709h-63.757V113.4c0-3.042,2.466-5.507,5.507-5.507h52.742
						c3.042,0,5.507,2.466,5.507,5.507V167.709z"/>
				</g>
				<g>
					<rect x="213.539" y="126.209" style="fill:#6C9BAA;" width="9.019" height="9.003"/>
				</g>
				<g>
					<rect x="228.566" y="126.209" style="fill:#E4F2F6;" width="9.019" height="9.003"/>
				</g>
				<g>
					<rect x="243.592" y="126.209" style="fill:#E4F2F6;" width="9.019" height="9.003"/>
				</g>
				<g>
					<rect x="258.618" y="126.209" style="fill:#6C9BAA;" width="9.019" height="9.003"/>
				</g>
				<g>
					<rect x="213.539" y="140.263" style="fill:#E4F2F6;" width="9.019" height="9.003"/>
				</g>
				<g>
					<rect x="228.566" y="140.263" style="fill:#6C9BAA;" width="9.019" height="9.003"/>
				</g>
				<g>
					<rect x="243.592" y="140.263" style="fill:#E4F2F6;" width="9.019" height="9.003"/>
				</g>
				<g>
					<rect x="258.618" y="140.263" style="fill:#E4F2F6;" width="9.019" height="9.003"/>
				</g>
				<g>
					<rect x="213.539" y="154.316" style="fill:#E4F2F6;" width="9.019" height="9.003"/>
				</g>
				<g>
					<rect x="228.566" y="154.316" style="fill:#E4F2F6;" width="9.019" height="9.003"/>
				</g>
				<g>
					<rect x="243.592" y="154.316" style="fill:#E4F2F6;" width="9.019" height="9.003"/>
				</g>
				<g>
					<rect x="258.618" y="154.316" style="fill:#E4F2F6;" width="9.019" height="9.003"/>
				</g>
				<g>
					<path style="fill:#FF4619;" d="M267.9,107.893h-54.54c-2.545,0-4.609,2.063-4.609,4.609v9.709h63.757v-9.709
						C272.508,109.956,270.445,107.893,267.9,107.893z"/>
				</g>
				<g>
					<rect x="208.751" y="119.007" style="fill:#E83A18;" width="63.757" height="3.204"/>
				</g>
				<g>
					<path style="fill:#FFFFFF;" d="M257.707,115.081c0,1.345-1.091,2.436-2.436,2.436c-1.345,0-2.436-1.09-2.436-2.436
						c0-1.345,1.09-2.436,2.436-2.436C256.616,112.645,257.707,113.736,257.707,115.081z"/>
				</g>
				<g>
					<path style="fill:#FFFFFF;" d="M227.43,115.081c0,1.345-1.09,2.436-2.436,2.436s-2.436-1.09-2.436-2.436
						c0-1.345,1.091-2.436,2.436-2.436S227.43,113.736,227.43,115.081z"/>
				</g>
			</g>
		</g>
		<g>
			<g>
				<path style="fill:#195FA0;" d="M120.931,352.921H85.305c-2.994,0-5.421,2.427-5.421,5.421v4.622h-6.8
					c-2.994,0-5.421,2.427-5.421,5.421v22.645c0,2.994,2.427,5.421,5.421,5.421l-0.287,5.538c-0.125,2.417,3.017,3.456,4.358,1.442
					l4.647-6.98h26.907c2.994,0,5.421-2.427,5.421-5.421v-4.622h6.8c2.994,0,5.421-2.427,5.421-5.421v-22.645
					C126.352,355.348,123.925,352.921,120.931,352.921z"/>
			</g>
			<g>
				<g>
					<path style="fill:#FFA50A;" d="M117.576,383.053H81.95c-2.994,0-5.421-2.427-5.421-5.421v-22.645
						c0-2.994,2.427-5.421,5.421-5.421h35.626c2.994,0,5.421,2.427,5.421,5.421v22.645
						C122.997,380.626,120.57,383.053,117.576,383.053z"/>
				</g>
				<g>
					<path style="fill:#FFD23C;" d="M105.355,393.096H78.448l-4.647,6.98c-1.341,2.014-4.483,0.975-4.358-1.442l0.287-5.538
						c-2.994,0-5.421-2.427-5.421-5.421V365.03c0-2.994,2.427-5.421,5.421-5.421h35.626c2.994,0,5.421,2.427,5.421,5.421v22.645
						C110.776,390.669,108.349,393.096,105.355,393.096z"/>
				</g>
				<g>
					<path style="fill:#FFA50A;" d="M81.127,376.353c0,1.448-1.174,2.621-2.621,2.621c-1.448,0-2.621-1.174-2.621-2.621
						c0-1.448,1.174-2.621,2.621-2.621C79.953,373.732,81.127,374.905,81.127,376.353z"/>
				</g>
				<g>
					<path style="fill:#FFA50A;" d="M90.134,376.353c0,1.448-1.174,2.621-2.621,2.621s-2.621-1.174-2.621-2.621
						c0-1.448,1.174-2.621,2.621-2.621S90.134,374.905,90.134,376.353z"/>
				</g>
				<g>
					<path style="fill:#FFA50A;" d="M99.141,376.353c0,1.448-1.174,2.621-2.621,2.621c-1.448,0-2.621-1.174-2.621-2.621
						c0-1.448,1.174-2.621,2.621-2.621C97.967,373.732,99.141,374.905,99.141,376.353z"/>
				</g>
			</g>
		</g>
		<g>
			<g>
				<rect x="162.516" y="334.158" style="fill:#195FA0;" width="111.177" height="78.132"/>
			</g>
			<g>
				<rect x="158.141" y="330.665" style="fill:#FFFFFF;" width="111.177" height="78.132"/>
			</g>
			<g>
				<path style="fill:#3C5A73;" d="M175.115,346.045h-4.154c-0.281,0-0.457-0.304-0.318-0.548l2.077-3.633
					c0.141-0.246,0.495-0.246,0.635,0l2.077,3.633C175.573,345.741,175.396,346.045,175.115,346.045z"/>
			</g>
			<g>
				<path style="fill:#3C5A73;" d="M249.485,399.457v-4.154c0-0.281,0.304-0.457,0.548-0.318l3.633,2.077
					c0.246,0.141,0.246,0.495,0,0.635l-3.633,2.077C249.789,399.915,249.485,399.739,249.485,399.457z"/>
			</g>
			<g>
				<g>
					
						<line style="fill:none;stroke:#5AB4FF;stroke-width:0.6057;stroke-miterlimit:10;" x1="173.038" y1="394.261" x2="174.136" y2="392.814"/>
					
						<line style="fill:none;stroke:#5AB4FF;stroke-width:0.6057;stroke-miterlimit:10;stroke-dasharray:3.983,3.983;" x1="176.544" y1="389.641" x2="194.602" y2="365.844"/>
					<polyline style="fill:none;stroke:#5AB4FF;stroke-width:0.6057;stroke-miterlimit:10;" points="195.806,364.257 
						196.904,362.81 198.419,363.814 					"/>
					
						<line style="fill:none;stroke:#5AB4FF;stroke-width:0.6057;stroke-miterlimit:10;stroke-dasharray:3.4245,3.4245;" x1="201.273" y1="365.706" x2="222.682" y2="379.895"/>
					<polyline style="fill:none;stroke:#5AB4FF;stroke-width:0.6057;stroke-miterlimit:10;" points="224.109,380.841 
						225.623,381.845 226.942,380.595 					"/>
					
						<line style="fill:none;stroke:#5AB4FF;stroke-width:0.6057;stroke-miterlimit:10;stroke-dasharray:3.583,3.583;" x1="229.543" y1="378.13" x2="249.048" y2="359.646"/>
					
						<line style="fill:none;stroke:#5AB4FF;stroke-width:0.6057;stroke-miterlimit:10;" x1="250.349" y1="358.413" x2="251.668" y2="357.164"/>
				</g>
			</g>
			<g>
				<g>
					
						<line style="fill:none;stroke:#E64B55;stroke-width:0.6057;stroke-miterlimit:10;" x1="173.038" y1="394.261" x2="174.509" y2="393.194"/>
					
						<line style="fill:none;stroke:#E64B55;stroke-width:0.6057;stroke-miterlimit:10;stroke-dasharray:3.7587,3.7587;" x1="177.552" y1="390.988" x2="200.372" y2="374.437"/>
					<polyline style="fill:none;stroke:#E64B55;stroke-width:0.6057;stroke-miterlimit:10;" points="201.894,373.334 
						203.365,372.267 204.828,373.345 					"/>
					
						<line style="fill:none;stroke:#E64B55;stroke-width:0.6057;stroke-miterlimit:10;stroke-dasharray:3.3856,3.3856;" x1="207.553" y1="375.353" x2="222.545" y2="386.397"/>
					<polyline style="fill:none;stroke:#E64B55;stroke-width:0.6057;stroke-miterlimit:10;" points="223.908,387.401 
						225.371,388.479 226.851,387.424 					"/>
					
						<line style="fill:none;stroke:#E64B55;stroke-width:0.6057;stroke-miterlimit:10;stroke-dasharray:4.0944,4.0944;" x1="230.185" y1="385.047" x2="248.521" y2="371.975"/>
					
						<line style="fill:none;stroke:#E64B55;stroke-width:0.6057;stroke-miterlimit:10;" x1="250.188" y1="370.786" x2="251.668" y2="369.731"/>
				</g>
			</g>
			<g>
				<g>
					
						<line style="fill:none;stroke:#55C7A6;stroke-width:0.6057;stroke-miterlimit:10;" x1="173.038" y1="395.473" x2="174.839" y2="395.23"/>
					
						<polyline style="fill:none;stroke:#55C7A6;stroke-width:0.6057;stroke-miterlimit:10;stroke-dasharray:3.6167,3.6167;" points="
						178.423,394.746 192.664,392.823 219.883,371.697 					"/>
					<polyline style="fill:none;stroke:#55C7A6;stroke-width:0.6057;stroke-miterlimit:10;" points="221.311,370.588 
						222.746,369.474 224.509,369.914 					"/>
					
						<line style="fill:none;stroke:#55C7A6;stroke-width:0.6057;stroke-miterlimit:10;stroke-dasharray:3.7393,3.7393;" x1="228.137" y1="370.82" x2="248.091" y2="375.803"/>
					
						<line style="fill:none;stroke:#55C7A6;stroke-width:0.6057;stroke-miterlimit:10;" x1="249.905" y1="376.256" x2="251.668" y2="376.697"/>
				</g>
			</g>
			<g>
				<g>
					
						<line style="fill:none;stroke:#FFD23C;stroke-width:0.6057;stroke-miterlimit:10;" x1="173.038" y1="396.23" x2="174.228" y2="394.857"/>
					
						<line style="fill:none;stroke:#FFD23C;stroke-width:0.6057;stroke-miterlimit:10;stroke-dasharray:3.1593,3.1593;" x1="176.298" y1="392.47" x2="187.681" y2="379.341"/>
					<polyline style="fill:none;stroke:#FFD23C;stroke-width:0.6057;stroke-miterlimit:10;" points="188.716,378.148 
						189.906,376.775 191.677,377.182 					"/>
					
						<line style="fill:none;stroke:#FFD23C;stroke-width:0.6057;stroke-miterlimit:10;stroke-dasharray:3.6191,3.6191;" x1="195.204" y1="377.992" x2="235.767" y2="387.31"/>
					<polyline style="fill:none;stroke:#FFD23C;stroke-width:0.6057;stroke-miterlimit:10;" points="237.531,387.716 
						239.302,388.122 240.134,386.507 					"/>
					
						<line style="fill:none;stroke:#FFD23C;stroke-width:0.6057;stroke-miterlimit:10;stroke-dasharray:3.3369,3.3369;" x1="241.663" y1="383.541" x2="250.071" y2="367.227"/>
					
						<line style="fill:none;stroke:#FFD23C;stroke-width:0.6057;stroke-miterlimit:10;" x1="250.835" y1="365.744" x2="251.668" y2="364.129"/>
				</g>
			</g>
			<g>
				<path style="fill:#5AB4FF;" d="M255.314,357.085c0,2.014-1.633,3.647-3.647,3.647c-2.014,0-3.647-1.633-3.647-3.647
					c0-2.014,1.633-3.647,3.647-3.647C253.682,353.438,255.314,355.071,255.314,357.085z"/>
			</g>
			<g>
				<circle style="fill:#FFD23C;" cx="251.668" cy="364.051" r="1.319"/>
			</g>
			<g>
				<circle style="fill:#E64B55;" cx="251.668" cy="369.883" r="1.319"/>
			</g>
			<g>
				<circle style="fill:#55C7A6;" cx="251.668" cy="376.697" r="1.319"/>
			</g>
			<polyline style="fill:none;stroke:#3C5A73;stroke-width:1.2113;stroke-miterlimit:10;" points="250.305,397.38 173.038,397.38 
				173.038,343.677 			"/>
		</g>
		<g>
			<g>
				<path style="fill:#195FA0;" d="M134.496,235.861c-1.371-0.678-2.147-2.177-1.702-3.641c0.159-0.524,0.258-1.075,0.285-1.645
					c0.196-4.03-3.343-7.279-7.378-7.279h-1.135c-1.484,0-2.618-1.267-2.498-2.746c0.028-0.342,0.011-0.697-0.055-1.06
					c-0.352-1.92-2.163-3.236-4.115-3.236h-13.041c-1.952,0-3.763,1.316-4.115,3.236c-0.113,0.618-0.081,1.212,0.067,1.758
					c0.279,1.033-0.468,2.047-1.538,2.047h0c-3.599,0-6.892,2.546-7.317,6.12c-0.115,0.97-0.024,1.899,0.233,2.757
					c0.391,1.309-0.528,2.589-1.894,2.578c-5.377-0.043-10.196,3.875-10.706,9.221c-0.582,6.1,4.199,11.231,10.178,11.231h15.36
					l4.977,8.703c0.594,1.038,2.091,1.038,2.684,0l4.976-8.703h11.824c4.908,0,9.827-3.924,10.491-8.787
					C140.706,241.803,138.255,237.721,134.496,235.861z"/>
			</g>
			<g>
				<path style="fill:#FFFFFF;" d="M131.496,232.861c-1.371-0.678-2.147-2.177-1.702-3.641c0.159-0.524,0.258-1.075,0.285-1.645
					c0.196-4.03-3.343-7.279-7.378-7.279h-1.135c-1.484,0-2.618-1.267-2.498-2.746c0.028-0.342,0.011-0.697-0.055-1.06
					c-0.352-1.92-2.163-3.236-4.115-3.236h-13.041c-1.952,0-3.763,1.316-4.115,3.236c-0.113,0.618-0.081,1.212,0.066,1.758
					c0.28,1.033-0.468,2.047-1.538,2.047l0,0c-3.599,0-6.892,2.546-7.317,6.12c-0.115,0.97-0.024,1.898,0.232,2.757
					c0.391,1.309-0.528,2.589-1.894,2.578c-5.377-0.043-10.196,3.875-10.706,9.222c-0.582,6.099,4.199,11.231,10.179,11.231h39.821
					c4.908,0,9.827-3.924,10.491-8.787C137.705,238.803,135.255,234.72,131.496,232.861z"/>
				<g>
					<g>
						<rect x="102.192" y="231.358" style="fill:#39AE96;" width="12.499" height="13.976"/>
					</g>
					<g>
						<path style="fill:#55C7A6;" d="M99.668,243.248h17.548c1.187,0,1.932,1.283,1.342,2.314l-8.774,15.344
							c-0.594,1.038-2.091,1.038-2.684,0l-8.774-15.344C97.736,244.531,98.48,243.248,99.668,243.248z"/>
					</g>
				</g>
			</g>
		</g>
		<g>
			<g>
				<rect x="188.806" y="345.496" style="fill:#5AB4FF;" width="8.111" height="8.14"/>
			</g>
			<g>
				<rect x="202.718" y="345.496" style="fill:#55C7A6;" width="8.111" height="8.14"/>
			</g>
			<g>
				<rect x="216.63" y="345.496" style="fill:#E64B55;" width="8.111" height="8.14"/>
			</g>
			<g>
				<rect x="230.542" y="345.496" style="fill:#FFD23C;" width="8.111" height="8.14"/>
			</g>
		</g>
		<g>
			<g>
				<circle style="fill:#195FA0;" cx="408.053" cy="377.702" r="28.392"/>
			</g>
			<g>
				
					<ellipse transform="matrix(0.1844 -0.9829 0.9829 0.1844 -36.3925 703.6091)" style="fill:#FFFFFF;" cx="405.738" cy="373.732" rx="28.392" ry="28.392"/>
			</g>
			<g>
				
					<ellipse transform="matrix(0.7071 -0.7071 0.7071 0.7071 -145.4302 396.3636)" style="fill:#5AB4FF;" cx="405.738" cy="373.732" rx="22.895" ry="22.895"/>
			</g>
			<g>
				<path style="fill:#55C7A6;" d="M405.738,350.836c-12.645,0-22.895,10.251-22.895,22.895h22.895h22.895
					C428.633,361.087,418.383,350.836,405.738,350.836z"/>
			</g>
			<g>
				<path style="fill:#FF4619;" d="M405.738,350.836c-12.645,0-22.895,10.251-22.895,22.895h22.895V350.836z"/>
			</g>
			<g>
				<path style="fill:#FFD23C;" d="M405.738,350.836c-6.322,0-12.046,2.563-16.189,6.706l16.189,16.189V350.836z"/>
			</g>
		</g>
		<g>
			<g>
				<path style="fill:#FF4619;" d="M403.937,273.733h-17.12l-2.957,4.441c-0.853,1.282-2.853,0.62-2.773-0.918l0.182-3.523
					c-1.905,0-3.449-1.544-3.449-3.449v-14.408c0-1.905,1.544-3.449,3.449-3.449h22.667c1.905,0,3.449,1.544,3.449,3.449v14.408
					C407.386,272.189,405.842,273.733,403.937,273.733z"/>
			</g>
			<g>
				<path style="fill:#CD5014;" d="M388.522,263.08c0,0.921-0.747,1.668-1.668,1.668c-0.921,0-1.668-0.747-1.668-1.668
					c0-0.921,0.747-1.668,1.668-1.668C387.775,261.412,388.522,262.159,388.522,263.08z"/>
			</g>
			<g>
				<path style="fill:#CD5014;" d="M394.252,263.08c0,0.921-0.747,1.668-1.668,1.668c-0.921,0-1.668-0.747-1.668-1.668
					c0-0.921,0.747-1.668,1.668-1.668C393.506,261.412,394.252,262.159,394.252,263.08z"/>
			</g>
			<g>
				<circle style="fill:#CD5014;" cx="398.315" cy="263.08" r="1.668"/>
			</g>
		</g>
		<g>
			<g>
				<path style="fill:#FFD23C;" d="M344.014,286.945h17.12l2.957,4.441c0.853,1.282,2.853,0.62,2.773-0.918l-0.182-3.523
					c1.905,0,3.449-1.544,3.449-3.449v-14.408c0-1.905-1.544-3.449-3.449-3.449h-22.667c-1.905,0-3.449,1.544-3.449,3.449v14.408
					C340.565,285.401,342.109,286.945,344.014,286.945z"/>
			</g>
			<g>
				<circle style="fill:#FFA50A;" cx="361.097" cy="276.292" r="1.668"/>
			</g>
			<g>
				<circle style="fill:#FFA50A;" cx="355.367" cy="276.292" r="1.668"/>
			</g>
			<g>
				<circle style="fill:#FFA50A;" cx="349.636" cy="276.292" r="1.668"/>
			</g>
		</g>
		<g>
			<rect x="379.661" y="281.754" style="fill:#B4D7DC;" width="34.685" height="4.16"/>
		</g>
		<g>
			<rect x="379.661" y="288.815" style="fill:#B4D7DC;" width="34.685" height="4.16"/>
		</g>
		<g>
			<rect x="335.446" y="296.242" style="fill:#B4D7DC;" width="34.684" height="4.16"/>
		</g>
		<g>
			
			<text transform="matrix(1 0 0 1 194.5483 266.0801)" style="fill:#FFFFFF; font-family:'Dosis-ExtraBold'; font-size:40.7788px;">OPS</text>
			<text transform="matrix(1 0 0 1 213.5557 284.9863)" style="fill:#55C7A6; font-family:'Dosis-ExtraBold'; font-size:16.157px;"></text>
		</g>
		<g>
			<path style="fill:none;stroke:#FFFFFF;stroke-width:1.2113;stroke-miterlimit:10;" d="M445.838,296.242h14.826
				c3.342,0,6.051-2.709,6.051-6.051v-58.818c0-4.072-3.301-7.373-7.373-7.373H422.73c-3.169,0-5.738-2.569-5.738-5.738v-6.223"/>
			<path style="fill:none;stroke:#FFFFFF;stroke-width:1.2113;stroke-miterlimit:10;" d="M427.011,131.7V120
				c0-3.35-2.716-6.067-6.067-6.067h-28.104"/>
			<path style="fill:none;stroke:#FFFFFF;stroke-width:1.2113;stroke-miterlimit:10;" d="M108.355,111.511H84.663
				c-3.351,0-6.068,2.717-6.068,6.068v11.13"/>
			
				<line style="fill:none;stroke:#FFFFFF;stroke-width:1.2113;stroke-miterlimit:10;" x1="293.681" y1="113.934" x2="325.755" y2="113.934"/>
			
				<line style="fill:none;stroke:#FFFFFF;stroke-width:1.2113;stroke-miterlimit:10;" x1="132.573" y1="369.474" x2="146.027" y2="369.474"/>
			
				<line style="fill:none;stroke:#FFFFFF;stroke-width:1.2113;stroke-miterlimit:10;" x1="121.842" y1="327.511" x2="121.842" y2="346.11"/>
			<path style="fill:none;stroke:#FFFFFF;stroke-width:1.2113;stroke-miterlimit:10;" d="M55.635,250.185v-18.488
				c0-1.647,1.335-2.982,2.982-2.982h17.919"/>
			
				<line style="fill:none;stroke:#FFFFFF;stroke-width:1.2113;stroke-miterlimit:10;" x1="166.061" y1="111.487" x2="185.542" y2="111.487"/>
			
				<line style="fill:none;stroke:#FFFFFF;stroke-width:1.2113;stroke-miterlimit:10;" x1="278.292" y1="369.731" x2="291.122" y2="369.731"/>
			
				<line style="fill:none;stroke:#FFFFFF;stroke-width:1.2113;stroke-miterlimit:10;" x1="356.69" y1="369.731" x2="369.521" y2="369.731"/>
			<path style="fill:none;stroke:#FFFFFF;stroke-width:1.2113;stroke-miterlimit:10;" d="M128.252,172.468h7.472
				c3.232,0,5.852,2.62,5.852,5.852v53.038"/>
			<path style="fill:none;stroke:#FFFFFF;stroke-width:1.2113;stroke-miterlimit:10;" d="M445.48,301.593h4.203
				c3.04,0,5.504,2.464,5.504,5.504v63.111c0,3.04-2.464,5.504-5.504,5.504h-11.342"/>
			
				<line style="fill:none;stroke:#FFFFFF;stroke-width:1.2113;stroke-miterlimit:10;" x1="78.505" y1="296.242" x2="93.475" y2="296.242"/>
			<g>
				
					<ellipse transform="matrix(0.1574 -0.9875 0.9875 0.1574 -57.7777 447.043)" style="fill:none;stroke:#FFFFFF;stroke-width:1.0649;stroke-miterlimit:10;stroke-dasharray:8.156,8.156;" cx="233.075" cy="257.379" rx="57.13" ry="57.13"/>
			</g>
			<path style="fill:none;stroke:#FFFFFF;stroke-width:1.5271;stroke-miterlimit:10;" d="M168.084,307.261
				c-10.619-13.815-16.932-31.111-16.932-49.883"/>
			<path style="fill:none;stroke:#FFFFFF;stroke-width:1.5271;stroke-miterlimit:10;" d="M283.668,192.939
				c19.078,14.999,31.331,38.288,31.331,64.44"/>
			<path style="fill:none;stroke:#FFFFFF;stroke-width:1.5271;stroke-miterlimit:10;" d="M304.287,216.255h59.665
				c2.771,0,5.018,2.247,5.018,5.018v17.072"/>
		</g>
		<circle style="fill:#FFFFFF;" cx="278.292" cy="290.895" r="6.415"/>
		<g>
			<path style="fill:#FF4619;" d="M185.659,230.044c0,1.483-1.202,2.684-2.684,2.684c-1.483,0-2.684-1.202-2.684-2.684
				s1.202-2.684,2.684-2.684C184.457,227.36,185.659,228.561,185.659,230.044z"/>
		</g>
		<g>
			
				<line style="fill:none;stroke:#FFFFFF;stroke-width:1.5271;stroke-miterlimit:10;" x1="159.618" y1="200.347" x2="159.618" y2="211.677"/>
			
				<line style="fill:none;stroke:#FFFFFF;stroke-width:1.5271;stroke-miterlimit:10;" x1="165.283" y1="206.012" x2="153.953" y2="206.012"/>
		</g>
		<g>
			
				<line style="fill:none;stroke:#FFFFFF;stroke-width:1.2157;stroke-miterlimit:10;" x1="120.201" y1="396.778" x2="123.482" y2="405.18"/>
			
				<line style="fill:none;stroke:#FFFFFF;stroke-width:1.2157;stroke-miterlimit:10;" x1="126.043" y1="399.338" x2="117.641" y2="402.62"/>
		</g>
		<g>
			
				<line style="fill:none;stroke:#FFFFFF;stroke-width:1.2157;stroke-miterlimit:10;" x1="436.701" y1="122.008" x2="439.982" y2="130.41"/>
			
				<line style="fill:none;stroke:#FFFFFF;stroke-width:1.2157;stroke-miterlimit:10;" x1="442.543" y1="124.568" x2="434.141" y2="127.85"/>
		</g>
		<g>
			
				<line style="fill:none;stroke:#FFFFFF;stroke-width:1.5271;stroke-miterlimit:10;" x1="319.931" y1="184.577" x2="310.066" y2="190.15"/>
			
				<line style="fill:none;stroke:#FFFFFF;stroke-width:1.5271;stroke-miterlimit:10;" x1="317.785" y1="192.296" x2="312.212" y2="182.431"/>
		</g>
		<g>
			
				<line style="fill:none;stroke:#FFFFFF;stroke-width:1.5271;stroke-miterlimit:10;" x1="304.266" y1="313.083" x2="294.401" y2="318.656"/>
			
				<line style="fill:none;stroke:#FFFFFF;stroke-width:1.5271;stroke-miterlimit:10;" x1="302.12" y1="320.802" x2="296.546" y2="310.937"/>
		</g>
		<g>
			
				<line style="fill:none;stroke:#FFFFFF;stroke-width:1.5271;stroke-miterlimit:10;" x1="70.495" y1="108.698" x2="60.63" y2="114.272"/>
			
				<line style="fill:none;stroke:#FFFFFF;stroke-width:1.5271;stroke-miterlimit:10;" x1="68.349" y1="116.417" x2="62.776" y2="106.552"/>
		</g>
		<path style="fill:none;stroke:#FFFFFF;stroke-width:1.2157;stroke-miterlimit:10;" d="M322,146.009c0,0.828-0.672,1.5-1.5,1.5
			s-1.5-0.672-1.5-1.5c0-0.829,0.672-1.5,1.5-1.5S322,145.18,322,146.009z"/>
		<path style="fill:none;stroke:#FFFFFF;stroke-width:1.2157;stroke-miterlimit:10;" d="M76.536,334.338
			c0,1.481-1.2,2.681-2.681,2.681c-1.481,0-2.681-1.2-2.681-2.681s1.2-2.681,2.681-2.681
			C75.336,331.657,76.536,332.857,76.536,334.338z"/>
		<path style="fill:none;stroke:#FFFFFF;stroke-width:1.2157;stroke-miterlimit:10;" d="M42.478,218.76
			c0,1.383-1.121,2.505-2.505,2.505c-1.383,0-2.505-1.121-2.505-2.505c0-1.383,1.121-2.505,2.505-2.505
			C41.356,216.255,42.478,217.376,42.478,218.76z"/>
		<path style="fill:none;stroke:#FFFFFF;stroke-width:1.2157;stroke-miterlimit:10;" d="M420.42,329.938
			c0,1.34-1.087,2.427-2.427,2.427c-1.34,0-2.427-1.087-2.427-2.427s1.087-2.427,2.427-2.427
			C419.333,327.511,420.42,328.598,420.42,329.938z"/>
		<path style="fill:none;stroke:#FFFFFF;stroke-width:1.2157;stroke-miterlimit:10;" d="M364.382,395.922
			c0,0.917-0.744,1.661-1.661,1.661s-1.661-0.744-1.661-1.661c0-0.917,0.744-1.661,1.661-1.661S364.382,395.005,364.382,395.922z"/>
		<path style="fill:#FFFFFF;" d="M93.898,267.522c0,1.04-0.843,1.882-1.882,1.882c-1.04,0-1.882-0.843-1.882-1.882
			c0-1.039,0.843-1.882,1.882-1.882C93.056,265.639,93.898,266.482,93.898,267.522z"/>
		<path style="fill:#FFFFFF;" d="M167.032,151.333c0,0.483-0.392,0.875-0.875,0.875c-0.483,0-0.875-0.392-0.875-0.875
			c0-0.483,0.392-0.875,0.875-0.875C166.641,150.458,167.032,150.85,167.032,151.333z"/>
		<path style="fill:#FFFFFF;" d="M180.29,85.051c0,1.2-0.973,2.173-2.173,2.173c-1.2,0-2.173-0.973-2.173-2.173
			c0-1.2,0.973-2.173,2.173-2.173C179.318,82.879,180.29,83.852,180.29,85.051z"/>
		<circle style="fill:#FFFFFF;" cx="349.261" cy="173.918" r="1.451"/>
		<path style="fill:#FFFFFF;" d="M189.459,314.983c0,1.049-0.851,1.9-1.9,1.9c-1.049,0-1.9-0.85-1.9-1.9c0-1.049,0.851-1.9,1.9-1.9
			C188.608,313.083,189.459,313.934,189.459,314.983z"/>
		<path style="fill:#FFFFFF;" d="M292.026,393.833c0,1.3-1.054,2.354-2.354,2.354s-2.354-1.054-2.354-2.354
			c0-1.3,1.054-2.354,2.354-2.354S292.026,392.533,292.026,393.833z"/>
		<g>
			<g>
				<path style="fill:#195FA0;" d="M122.997,279.321c-11.932,0-21.604,9.673-21.604,21.604c0,11.932,9.673,21.604,21.604,21.604
					c11.932,0,21.604-9.673,21.604-21.604C144.601,288.993,134.929,279.321,122.997,279.321z M122.997,311.623
					c-5.908,0-10.698-4.789-10.698-10.698s4.789-10.698,10.698-10.698c5.908,0,10.698,4.789,10.698,10.698
					S128.905,311.623,122.997,311.623z"/>
			</g>
			<g>
				<path style="fill:#FFFFFF;" d="M121.842,276.27c-11.932,0-21.604,9.673-21.604,21.604c0,11.932,9.673,21.604,21.604,21.604
					c11.932,0,21.604-9.673,21.604-21.604C143.446,285.943,133.773,276.27,121.842,276.27z M121.842,308.572
					c-5.908,0-10.698-4.789-10.698-10.698s4.789-10.698,10.698-10.698c5.908,0,10.698,4.789,10.698,10.698
					S127.75,308.572,121.842,308.572z"/>
				<g>
					<defs>
						<path id="SVGID_1_" d="M121.842,276.27c-11.932,0-21.604,9.673-21.604,21.604c0,11.932,9.673,21.604,21.604,21.604
							c11.932,0,21.604-9.673,21.604-21.604C143.446,285.943,133.773,276.27,121.842,276.27z M121.842,308.572
							c-5.908,0-10.698-4.789-10.698-10.698s4.789-10.698,10.698-10.698c5.908,0,10.698,4.789,10.698,10.698
							S127.75,308.572,121.842,308.572z"/>
					</defs>
					<clipPath id="SVGID_00000076574401842198817700000017872831580991431834_">
						<use xlink:href="#SVGID_1_"  style="overflow:visible;"/>
					</clipPath>
					<g style="clip-path:url(#SVGID_00000076574401842198817700000017872831580991431834_);">
						<rect x="121.842" y="276.27" style="fill:#E64B55;" width="24.186" height="21.604"/>
					</g>
					<g style="clip-path:url(#SVGID_00000076574401842198817700000017872831580991431834_);">
						<rect x="121.842" y="297.875" style="fill:#FFD23C;" width="24.186" height="25.167"/>
					</g>
				</g>
			</g>
		</g>
	</g>
</g>
</svg>
